# xmcd
#
# Track frame offsets:
#	150
#	14464
#	27740
#	42366
#	58562
#	74481
#	87027
#	100553
#	117786
#	136453
#	148633
#	170299
#	183016
#	192739
#	205406
#	219162
#	231167
#	250850
#	264187
#	281066
#	295679
#
# Disc length: 4156 seconds
# Revision: 0
# Processed by: cddbd v1.5.2PL0 Copyright (c) Steve Scherf et al.
# Submitted via: dBpowerAMP V12.0
#
DISCID=33103a15
DTITLE=Various Artist - The World's Greatest Country Hits - 2007
DYEAR=1975
DGENRE=Pop
TTITLE0=Glenn Campbell - Rhinestone Cowboy
TTITLE1=Lynn Anderson - Rose Garden
TTITLE2=Eddie Rabbitt - Drivin' My Live Away
TTITLE3=Rita Coolidge - We're All Alone
TTITLE4=Willie Nelson - Always On My Mind
TTITLE5=Roy Orbison - Crying
TTITLE6=Loretta Lynn - Coal Miner's Daughter
TTITLE7=Clint Black - Desperado
TTITLE8=Dave Loggins - Please Come To Boston
TTITLE9=Anne Murray - Walk Right Back
TTITLE10=Michael Murphey - Wildfire
TTITLE11=Loggins and Messina - Your Mama Don't Dance
TTITLE12=Waylon Jennings - Theme From The Dukes Of Hazzard
TTITLE13=The Statlers Brothers - Take Me Home Country Roads
TTITLE14=The Highwaymen - Highwayman
TTITLE15=Guy Mitchell - Heartaches By The Numbers
TTITLE16=Marty Robbins - El Paso
TTITLE17=Tammy Wynette - D.I.V.O.R.C.E.
TTITLE18=Johnny Cash - A Boy Named Sue (live)
TTITLE19=Lorne Green - Ringo
TTITLE20=Charlie Daniels Band - The Devil Went Down To Georgia
EXTD=
EXTT0=
EXTT1=
EXTT2=
EXTT3=
EXTT4=
EXTT5=
EXTT6=
EXTT7=
EXTT8=
EXTT9=
EXTT10=
EXTT11=
EXTT12=
EXTT13=
EXTT14=
EXTT15=
EXTT16=
EXTT17=
EXTT18=
EXTT19=
EXTT20=
PLAYORDER=
